<svg width="120" height="80" viewBox="0 0 1437 508" fill="none" xmlns="http://www.w3.org/2000/svg">
<g filter="url(#filter0_d_7_53)">
<path d="M146.302 482.501C144.291 484.709 140.47 486.697 134.839 488.463C129.208 490.009 122.672 490.781 115.231 490.781C98.741 490.781 88.3842 485.372 84.1611 474.553C74.106 486.034 58.7217 491.775 38.0082 491.775C26.9476 491.775 17.7975 489.015 10.5578 483.495C3.51928 477.754 0 469.364 0 458.324C0 443.531 5.22865 432.16 15.6859 424.211C26.1432 416.041 44.4435 410.301 70.5867 406.989L82.6528 405.333V389.104C82.6528 369.895 81.3457 356.978 78.7313 350.354C76.117 343.73 70.8884 340.418 63.0454 340.418C55.4035 340.418 50.4765 341.632 48.2644 344.061C46.0523 346.269 45.2479 348.919 45.8512 352.01C46.4545 354.88 47.46 358.744 48.8677 363.602C50.2754 368.459 50.9793 372.323 50.9793 375.194C50.9793 382.038 48.7672 387.89 44.3429 392.747C40.1198 397.384 34.8912 399.702 28.657 399.702C22.6239 399.702 17.3953 397.384 12.9711 392.747C8.54682 387.89 6.3347 382.038 6.3347 375.194C6.3347 363.933 11.5633 354.328 22.0206 346.38C32.679 338.21 48.4655 334.125 69.3801 334.125C90.4958 334.125 105.478 338.652 114.326 347.704C123.376 356.757 127.901 372.765 127.901 395.728V455.343C127.901 467.046 129.208 474.442 131.822 477.533C134.437 480.404 139.263 480.956 146.302 479.189V482.501ZM41.9297 451.7C42.9352 460.09 45.7506 466.604 50.376 471.241C55.0013 475.657 60.3305 477.865 66.3636 477.865C72.5977 477.865 78.0275 474.553 82.6528 467.929V411.625L71.7933 413.281C62.5426 414.606 55.0013 418.47 49.1694 424.873C43.5385 431.276 41.1253 440.219 41.9297 451.7Z" fill="url(#paint0_linear_7_53)"/>
<path d="M577.475 498.376H592.557V505H517.144V498.376H532.227V289.722H517.144V283.098H577.475V498.376Z" fill="url(#paint1_linear_7_53)"/>
<path d="M783.223 485.147C781.212 487.355 777.391 489.342 771.76 491.109C766.129 492.654 759.593 493.427 752.153 493.427C735.662 493.427 725.306 488.018 721.082 477.198C711.027 488.68 695.643 494.421 674.93 494.421C663.869 494.421 654.719 491.661 647.479 486.141C640.441 480.4 636.921 472.01 636.921 460.97C636.921 446.176 642.15 434.805 652.607 426.857C663.065 418.687 681.365 412.946 707.508 409.634L719.574 407.978V391.75C719.574 372.54 718.267 359.624 715.653 353C713.038 346.376 707.81 343.064 699.967 343.064C692.325 343.064 687.398 344.278 685.186 346.707C682.974 348.915 682.169 351.565 682.773 354.656C683.376 357.526 684.381 361.39 685.789 366.248C687.197 371.105 687.901 374.969 687.901 377.839C687.901 384.684 685.688 390.535 681.264 395.393C677.041 400.03 671.812 402.348 665.578 402.348C659.545 402.348 654.317 400.03 649.892 395.393C645.468 390.535 643.256 384.684 643.256 377.839C643.256 366.579 648.485 356.974 658.942 349.025C669.6 340.856 685.387 336.771 706.301 336.771C727.417 336.771 742.399 341.297 751.248 350.35C760.297 359.403 764.822 375.411 764.822 398.374V457.989C764.822 469.691 766.129 477.088 768.744 480.179C771.358 483.05 776.184 483.602 783.223 481.835V485.147ZM678.851 454.346C679.857 462.736 682.672 469.25 687.297 473.886C691.923 478.302 697.252 480.51 703.285 480.51C709.519 480.51 714.949 477.198 719.574 470.575V414.271L708.715 415.927C699.464 417.252 691.923 421.116 686.091 427.519C680.46 433.922 678.047 442.864 678.851 454.346Z" fill="url(#paint2_linear_7_53)"/>
<path d="M1003.31 482.501H1018.39V489.125H942.981V482.501H958.064V389.766C958.064 374.09 955.952 362.939 951.729 356.315C947.506 349.692 941.171 346.38 932.725 346.38C921.262 346.38 912.112 353.004 905.274 366.251V482.501H920.357V489.125H844.944V482.501H860.027V343.399H844.944V336.775H905.274V353.997C909.095 348.256 915.028 343.399 923.072 339.424C931.317 335.229 940.166 333.132 949.617 333.132C985.414 333.132 1003.31 354.439 1003.31 397.053V482.501Z" fill="url(#paint3_linear_7_53)"/>
<path d="M1083.85 415.596C1083.85 389.542 1090.79 369.78 1104.67 356.312C1118.54 342.843 1136.14 336.109 1157.46 336.109C1178.97 336.109 1194.96 342.07 1205.42 353.993C1215.88 365.696 1219.6 377.839 1216.58 390.425C1214.97 397.27 1211.55 402.348 1206.32 405.66C1201.3 408.751 1195.77 409.524 1189.73 407.978C1177.06 404.666 1170.73 396.607 1170.73 383.801C1170.73 380.489 1171.03 375.521 1171.63 368.897C1172.44 362.052 1172.74 357.084 1172.54 353.993C1172.34 350.902 1171.73 348.473 1170.73 346.707C1168.72 342.953 1163.99 341.518 1156.55 342.401C1138.45 345.493 1129.4 369.891 1129.4 415.596C1129.4 461.08 1144.18 483.822 1173.75 483.822C1180.58 483.822 1187.52 481.835 1194.56 477.861C1201.6 473.887 1206.83 469.139 1210.25 463.619L1214.47 466.931C1209.84 475.322 1202.91 482.056 1193.65 487.134C1184.4 492.213 1174.05 494.752 1162.58 494.752C1110.1 494.752 1083.85 468.367 1083.85 415.596Z" fill="url(#paint4_linear_7_53)"/>
<path d="M1414.22 422.886H1323.12C1325.13 461.746 1338.9 481.177 1364.44 481.177C1371.28 481.177 1379.02 479.41 1387.67 475.878C1396.52 472.345 1402.96 467.377 1406.98 460.974L1411.2 464.286C1406.78 472.455 1399.24 479.189 1388.58 484.489C1377.92 489.788 1367.26 492.437 1356.6 492.437C1346.14 492.437 1336.69 491.333 1328.25 489.125C1319.8 486.697 1311.55 482.722 1303.51 477.202C1295.47 471.682 1289.13 463.402 1284.51 452.363C1280.08 441.323 1277.87 427.964 1277.87 412.288C1277.87 385.571 1284.61 365.81 1298.08 353.004C1311.55 339.976 1327.84 333.463 1346.95 333.463C1366.25 333.463 1382.24 340.528 1394.91 354.66C1407.78 368.791 1414.22 391.533 1414.22 422.886ZM1322.82 416.262H1371.99C1371.99 395.949 1369.97 378.174 1365.95 362.939C1362.13 347.704 1355.9 340.087 1347.25 340.087C1338.6 340.087 1332.37 347.484 1328.55 362.277C1324.73 376.85 1322.82 393.63 1322.82 412.619V416.262Z" fill="url(#paint5_linear_7_53)"/>
<path d="M452.932 494.055C452.932 488.977 451.625 484.781 449.01 481.47C446.396 477.937 442.977 476.17 438.754 476.17C434.732 476.17 430.509 478.047 426.085 481.801C421.862 485.554 416.834 489.418 411.002 493.393C405.371 497.146 398.534 499.023 390.49 499.023C363.14 499.023 341.924 491.295 326.841 475.839C311.96 460.383 304.519 436.648 304.519 404.632C304.519 337.73 332.975 304.279 389.887 304.279C400.143 304.279 410.6 307.039 421.258 312.559C432.118 318.079 438.754 320.839 441.168 320.839C443.581 320.839 445.592 319.514 447.201 316.865C448.809 313.994 449.614 311.234 449.614 308.585H455.345V375.818H449.312C449.312 359.037 443.279 344.023 431.213 330.775C419.348 317.527 405.573 310.903 389.887 310.903C377.821 310.903 368.67 318.079 362.436 332.431C356.202 346.562 353.085 370.077 353.085 402.976C353.085 435.654 356.202 458.727 362.436 472.196C368.871 485.665 378.223 492.399 390.49 492.399C409.796 492.399 419.449 473.521 419.449 435.764V411.256H400.444V404.632H472.841V411.256H458.663V494.055H452.932Z" fill="url(#paint6_linear_7_53)"/>
<path d="M171.353 110.288H165.32C165.32 92.6247 160.192 76.2856 149.936 61.2714C139.68 46.2571 124.999 38.75 105.895 38.75C95.2362 38.75 86.3878 45.5947 79.3492 59.2842C72.5117 72.9737 69.093 96.3782 69.093 129.498C69.093 162.618 72.5117 186.022 79.3492 199.712C86.3878 213.401 97.2473 220.246 111.928 220.246C126.809 220.246 139.278 215.167 149.333 205.011C159.589 194.854 165.924 180.502 168.337 161.955H174.37C171.554 183.814 164.516 200.153 153.254 210.972C142.193 221.571 128.921 226.87 113.436 226.87C83.4718 226.87 60.4456 219.031 44.3575 203.355C28.4705 187.457 20.5269 162.728 20.5269 129.167C20.5269 95.3847 28.2694 70.7657 43.7542 55.3098C59.4401 39.854 80.1536 32.1261 105.895 32.1261C119.771 32.1261 133.244 36.2108 146.316 44.3804C150.539 47.2507 153.958 48.6859 156.572 48.6859C159.388 48.6859 161.6 47.3611 163.209 44.7116C164.817 41.8412 165.622 39.0812 165.622 36.4316H171.353V110.288Z" fill="url(#paint7_linear_7_53)"/>
<path d="M386.441 215.278H401.523V221.902H326.11V215.278H341.193V122.543C341.193 106.866 339.081 95.7158 334.858 89.0919C330.635 82.468 324.3 79.156 315.854 79.156C304.391 79.156 295.241 85.7799 288.404 99.0278V215.278H303.486V221.902H228.073V215.278H243.156V6.62393H228.073V0H288.404V86.7735C292.225 80.812 298.157 75.844 306.201 71.8697C314.245 67.8953 323.094 65.9081 332.747 65.9081C368.543 65.9081 386.441 87.2151 386.441 129.829V215.278Z" fill="url(#paint8_linear_7_53)"/>
<path d="M605.234 215.278C603.223 217.486 599.402 219.473 593.771 221.239C588.141 222.785 581.605 223.558 574.164 223.558C557.674 223.558 547.317 218.148 543.094 207.329C533.039 218.811 517.654 224.551 496.941 224.551C485.88 224.551 476.73 221.791 469.491 216.271C462.452 210.531 458.933 202.14 458.933 191.101C458.933 176.307 464.161 164.936 474.619 156.987C485.076 148.818 503.376 143.077 529.519 139.765L541.586 138.109V121.88C541.586 102.671 540.278 89.7543 537.664 83.1304C535.05 76.5064 529.821 73.1945 521.978 73.1945C514.336 73.1945 509.409 74.4089 507.197 76.8376C504.985 79.0456 504.181 81.6952 504.784 84.7864C505.387 87.6567 506.393 91.5207 507.8 96.3782C509.208 101.236 509.912 105.1 509.912 107.97C509.912 114.815 507.7 120.666 503.276 125.524C499.053 130.16 493.824 132.479 487.59 132.479C481.557 132.479 476.328 130.16 471.904 125.524C467.48 120.666 465.267 114.815 465.267 107.97C465.267 96.7094 470.496 87.1047 480.953 79.156C491.612 70.9865 507.398 66.9017 528.313 66.9017C549.429 66.9017 564.411 71.4281 573.259 80.4808C582.309 89.5335 586.833 105.541 586.833 128.504V188.12C586.833 199.822 588.141 207.219 590.755 210.31C593.369 213.18 598.196 213.732 605.234 211.966V215.278ZM500.862 184.477C501.868 192.867 504.683 199.38 509.309 204.017C513.934 208.433 519.263 210.641 525.296 210.641C531.531 210.641 536.96 207.329 541.586 200.705V144.402L530.726 146.058C521.475 147.383 513.934 151.246 508.102 157.65C502.471 164.053 500.058 172.995 500.862 184.477Z" fill="url(#paint9_linear_7_53)"/>
<path d="M759.461 221.902H684.048V215.278H699.131V76.1752H684.048V69.5513H744.378V108.964C746.188 98.1446 749.406 89.3127 754.031 82.468C758.858 75.6232 764.086 71.0969 769.717 68.8889C775.549 66.6809 781.08 65.5769 786.308 65.5769C791.738 65.5769 796.866 66.6809 801.692 68.8889C806.72 70.8761 810.44 75.0713 812.854 81.4744C815.267 87.6567 815.367 93.9495 813.155 100.353C810.943 106.535 807.022 110.951 801.391 113.6C795.961 116.25 790.933 116.581 786.308 114.594C781.683 112.607 778.365 109.957 776.354 106.645C774.343 103.113 772.935 99.8006 772.13 96.7094C770.119 88.5399 767.405 84.4552 763.986 84.4552C760.165 84.4552 755.942 91.7415 751.316 106.314C746.691 120.666 744.378 135.901 744.378 152.019V215.278H759.461V221.902Z" fill="url(#paint10_linear_7_53)"/>
<path d="M923.336 76.1752V156.987C923.336 175.976 924.04 187.568 925.448 191.763C926.855 195.737 928.364 199.16 929.972 202.03C932.989 207.771 938.218 210.641 945.658 210.641C953.3 210.641 958.629 209.537 961.646 207.329V213.953C951.993 221.46 941.435 225.214 929.972 225.214C913.08 225.214 900.209 220.798 891.361 211.966C882.512 203.134 878.088 187.347 878.088 164.605V76.1752H855.766V69.5513H878.088C887.741 67.7849 896.288 62.7066 903.729 54.3163C911.169 45.7051 916.297 33.8925 919.113 18.8782H923.336V69.5513H958.328V76.1752H923.336Z" fill="url(#paint11_linear_7_53)"/>
<path d="M1296.23 215.278C1294.22 217.486 1290.4 219.473 1284.77 221.239C1279.14 222.785 1272.6 223.558 1265.16 223.558C1248.67 223.558 1238.31 218.148 1234.09 207.329C1224.03 218.811 1208.65 224.551 1187.94 224.551C1176.88 224.551 1167.73 221.791 1160.49 216.271C1153.45 210.531 1149.93 202.14 1149.93 191.101C1149.93 176.307 1155.16 164.936 1165.61 156.987C1176.07 148.818 1194.37 143.077 1220.51 139.765L1232.58 138.109V121.88C1232.58 102.671 1231.27 89.7543 1228.66 83.1304C1226.04 76.5064 1220.82 73.1945 1212.97 73.1945C1205.33 73.1945 1200.4 74.4089 1198.19 76.8376C1195.98 79.0456 1195.18 81.6952 1195.78 84.7864C1196.38 87.6567 1197.39 91.5207 1198.8 96.3782C1200.2 101.236 1200.91 105.1 1200.91 107.97C1200.91 114.815 1198.7 120.666 1194.27 125.524C1190.05 130.16 1184.82 132.479 1178.58 132.479C1172.55 132.479 1167.32 130.16 1162.9 125.524C1158.47 120.666 1156.26 114.815 1156.26 107.97C1156.26 96.7094 1161.49 87.1047 1171.95 79.156C1182.61 70.9865 1198.39 66.9017 1219.31 66.9017C1240.42 66.9017 1255.41 71.4281 1264.25 80.4808C1273.3 89.5335 1277.83 105.541 1277.83 128.504V188.12C1277.83 199.822 1279.14 207.219 1281.75 210.31C1284.36 213.18 1289.19 213.732 1296.23 211.966V215.278ZM1191.86 184.477C1192.86 192.867 1195.68 199.38 1200.3 204.017C1204.93 208.433 1210.26 210.641 1216.29 210.641C1222.53 210.641 1227.96 207.329 1232.58 200.705V144.402L1221.72 146.058C1212.47 147.383 1204.93 151.246 1199.1 157.65C1193.47 164.053 1191.05 172.995 1191.86 184.477Z" fill="url(#paint12_linear_7_53)"/>
<path d="M1396.69 76.1752V156.987C1396.69 175.976 1397.39 187.568 1398.8 191.763C1400.21 195.737 1401.72 199.16 1403.33 202.03C1406.34 207.771 1411.57 210.641 1419.01 210.641C1426.65 210.641 1431.98 209.537 1435 207.329V213.953C1425.35 221.46 1414.79 225.214 1403.33 225.214C1386.43 225.214 1373.56 220.798 1364.71 211.966C1355.87 203.134 1351.44 187.347 1351.44 164.605V76.1752H1329.12V69.5513H1351.44C1361.1 67.7849 1369.64 62.7066 1377.08 54.3163C1384.52 45.7051 1389.65 33.8925 1392.47 18.8782H1396.69V69.5513H1431.68V76.1752H1396.69Z" fill="url(#paint13_linear_7_53)"/>
</g>
<defs>
<filter id="filter0_d_7_53" x="0" y="0" width="1437" height="508" filterUnits="userSpaceOnUse" color-interpolation-filters="sRGB">
<feFlood flood-opacity="0" result="BackgroundImageFix"/>
<feColorMatrix in="SourceAlpha" type="matrix" values="0 0 0 0 0 0 0 0 0 0 0 0 0 0 0 0 0 0 127 0" result="hardAlpha"/>
<feOffset dx="1" dy="2"/>
<feGaussianBlur stdDeviation="0.5"/>
<feComposite in2="hardAlpha" operator="out"/>
<feColorMatrix type="matrix" values="0 0 0 0 1 0 0 0 0 1 0 0 0 0 1 0 0 0 0.87 0"/>
<feBlend mode="normal" in2="BackgroundImageFix" result="effect1_dropShadow_7_53"/>
<feBlend mode="normal" in="SourceGraphic" in2="effect1_dropShadow_7_53" result="shape"/>
</filter>
<linearGradient id="paint0_linear_7_53" x1="680.755" y1="733.428" x2="685.278" y2="-139.367" gradientUnits="userSpaceOnUse">
<stop stop-color="#807BB8" stop-opacity="0.73"/>
<stop offset="1" stop-color="#7C82B7" stop-opacity="0.26"/>
</linearGradient>
<linearGradient id="paint1_linear_7_53" x1="680.755" y1="733.428" x2="685.278" y2="-139.367" gradientUnits="userSpaceOnUse">
<stop stop-color="#807BB8" stop-opacity="0.73"/>
<stop offset="1" stop-color="#7C82B7" stop-opacity="0.26"/>
</linearGradient>
<linearGradient id="paint2_linear_7_53" x1="680.755" y1="733.428" x2="685.278" y2="-139.367" gradientUnits="userSpaceOnUse">
<stop stop-color="#807BB8" stop-opacity="0.73"/>
<stop offset="1" stop-color="#7C82B7" stop-opacity="0.26"/>
</linearGradient>
<linearGradient id="paint3_linear_7_53" x1="680.755" y1="733.428" x2="685.278" y2="-139.367" gradientUnits="userSpaceOnUse">
<stop stop-color="#807BB8" stop-opacity="0.73"/>
<stop offset="1" stop-color="#7C82B7" stop-opacity="0.26"/>
</linearGradient>
<linearGradient id="paint4_linear_7_53" x1="680.755" y1="733.428" x2="685.278" y2="-139.367" gradientUnits="userSpaceOnUse">
<stop stop-color="#807BB8" stop-opacity="0.73"/>
<stop offset="1" stop-color="#7C82B7" stop-opacity="0.26"/>
</linearGradient>
<linearGradient id="paint5_linear_7_53" x1="680.755" y1="733.428" x2="685.278" y2="-139.367" gradientUnits="userSpaceOnUse">
<stop stop-color="#807BB8" stop-opacity="0.73"/>
<stop offset="1" stop-color="#7C82B7" stop-opacity="0.26"/>
</linearGradient>
<linearGradient id="paint6_linear_7_53" x1="680.755" y1="733.428" x2="685.278" y2="-139.367" gradientUnits="userSpaceOnUse">
<stop stop-color="#807BB8" stop-opacity="0.73"/>
<stop offset="1" stop-color="#7C82B7" stop-opacity="0.26"/>
</linearGradient>
<linearGradient id="paint7_linear_7_53" x1="680.755" y1="733.428" x2="685.278" y2="-139.367" gradientUnits="userSpaceOnUse">
<stop stop-color="#807BB8" stop-opacity="0.73"/>
<stop offset="1" stop-color="#7C82B7" stop-opacity="0.26"/>
</linearGradient>
<linearGradient id="paint8_linear_7_53" x1="680.755" y1="733.428" x2="685.278" y2="-139.367" gradientUnits="userSpaceOnUse">
<stop stop-color="#807BB8" stop-opacity="0.73"/>
<stop offset="1" stop-color="#7C82B7" stop-opacity="0.26"/>
</linearGradient>
<linearGradient id="paint9_linear_7_53" x1="680.755" y1="733.428" x2="685.278" y2="-139.367" gradientUnits="userSpaceOnUse">
<stop stop-color="#807BB8" stop-opacity="0.73"/>
<stop offset="1" stop-color="#7C82B7" stop-opacity="0.26"/>
</linearGradient>
<linearGradient id="paint10_linear_7_53" x1="680.755" y1="733.428" x2="685.278" y2="-139.367" gradientUnits="userSpaceOnUse">
<stop stop-color="#807BB8" stop-opacity="0.73"/>
<stop offset="1" stop-color="#7C82B7" stop-opacity="0.26"/>
</linearGradient>
<linearGradient id="paint11_linear_7_53" x1="680.755" y1="733.428" x2="685.278" y2="-139.367" gradientUnits="userSpaceOnUse">
<stop stop-color="#807BB8" stop-opacity="0.73"/>
<stop offset="1" stop-color="#7C82B7" stop-opacity="0.26"/>
</linearGradient>
<linearGradient id="paint12_linear_7_53" x1="680.755" y1="733.428" x2="685.278" y2="-139.367" gradientUnits="userSpaceOnUse">
<stop stop-color="#807BB8" stop-opacity="0.73"/>
<stop offset="1" stop-color="#7C82B7" stop-opacity="0.26"/>
</linearGradient>
<linearGradient id="paint13_linear_7_53" x1="680.755" y1="733.428" x2="685.278" y2="-139.367" gradientUnits="userSpaceOnUse">
<stop stop-color="#807BB8" stop-opacity="0.73"/>
<stop offset="1" stop-color="#7C82B7" stop-opacity="0.26"/>
</linearGradient>
</defs>
</svg>
